{"title":"Beowulf (2007) DVDRip XviD AC3 peaSoup","uid":10499413,"size":1749196690,"categoryP":"video","categoryS":"movies","magnet":"?xt=urn:btih:03566be0fda28a5871f2192d2024994671a7f2d2&amp;dn=Beowulf+%282007%29+DVDRip+XviD+AC3+peaSoup&amp;tr=udp%3A%2F%2Ftracker.openbittorrent.com%3A80&amp;tr=udp%3A%2F%2Fopen.demonii.com%3A1337&amp;tr=udp%3A%2F%2Ftracker.coppersurfer.tk%3A6969&amp;tr=udp%3A%2F%2Fexodus.desync.com%3A6969","seeders":2,"leechers":3,"uploader":"peaSoup","files":-1,"time":1404673632,"description":"Storyline\n\nSet against the coming of Christianity, this is the story of the last hero: in 507, a monstrous troll wreaks havoc in the mead hall of the Danish king, Hrothgar. He offers rewards for the death of Grendel, so Beowulf, a great and boastful Geat warrior, arrives with his thanes. Beowulf sets aside his armor and awaits the monster; a fierce battle ensues that leads to Beowolf's entering the watery lair of Grendel's mother, where a devil's bargain awaits. Beowulf returns to Herot, the castle, and becomes king. Jump ahead many years, and the sins of the father are visited upon Beowulf and his kingdom. The hero must face his weakness and be heroic once again. Is the age of demons over?                                              &lt;a href=&quot; http://i.imgur.com/nxbO9Am.jpg&quot; rel=&quot;nofollow&quot; target=&quot;_NEW&quot;&gt; http://i.imgur.com/nxbO9Am.jpg&lt;/a&gt;                                                      &lt;a href=&quot; http://i.imgur.com/soyWFGW.jpg&quot; rel=&quot;nofollow&quot; target=&quot;_NEW&quot;&gt; http://i.imgur.com/soyWFGW.jpg&lt;/a&gt;                                                      &lt;a href=&quot; http://i.imgur.com/3CioaBO.jpg&quot; rel=&quot;nofollow&quot; target=&quot;_NEW&quot;&gt; http://i.imgur.com/3CioaBO.jpg&lt;/a&gt;                                                      &lt;a href=&quot; http://i.imgur.com/QNwuH7t.jpg&quot; rel=&quot;nofollow&quot; target=&quot;_NEW&quot;&gt; http://i.imgur.com/QNwuH7t.jpg&lt;/a&gt;                                                      &lt;a href=&quot; http://i.imgur.com/LLhmY43.jpg&quot; rel=&quot;nofollow&quot; target=&quot;_NEW&quot;&gt; http://i.imgur.com/LLhmY43.jpg&lt;/a&gt;                                                       \nFormat                                   : AVI\nFormat/Info                              : Audio Video Interleave\nFormat profile                           : OpenDML\nFile size                                : 1.62 GiB\nDuration                                 : 1h 49mn\nOverall bit rate                         : 2 123 Kbps\nMovie name                               : Beowulf (2007) DVDRip XviD AC3 peaSoup\nWriting application                      : Lavf54.63.104\nOriginal source form/Name                : BEOWULF\n\nVideo\nID                                       : 0\nFormat                                   : MPEG-4 Visual\nFormat profile                           : Advanced Simple@L5\nFormat settings, BVOP                    : 2\nFormat settings, QPel                    : No\nFormat settings, GMC                     : No warppoints\nFormat settings, Matrix                  : Default (MPEG)\nMuxing mode                              : Packed bitstream\nCodec ID                                 : XVID\nCodec ID/Hint                            : XviD\nDuration                                 : 1h 49mn\nBit rate                                 : 1 663 Kbps\nWidth                                    : 720 pixels\nHeight                                   : 308 pixels\nDisplay aspect ratio                     : 2.35:1\nFrame rate                               : 25.000 fps\nColor space                              : YUV\nChroma subsampling                       : 4:2:0\nBit depth                                : 8 bits\nScan type                                : Progressive\nCompression mode                         : Lossy\nBits/(Pixel*Frame)                       : 0.300\nStream size                              : 1.27 GiB (78%)\nWriting library                          : XviD 64\n\nAudio\nID                                       : 1\nFormat                                   : AC-3\nFormat/Info                              : Audio Coding 3\nMode extension                           : CM (complete main)\nFormat settings, Endianness              : Big\nCodec ID                                 : 2000\nDuration                                 : 1h 49mn\nBit rate mode                            : Constant\nBit rate                                 : 448 Kbps\nChannel(s)                               : 6 channels\nChannel positions                        : Front: L C R, Side: L R, LFE\nSampling rate                            : 48.0 KHz\nBit depth                                : 16 bits\nCompression mode                         : Lossy\nStream size                              : 351 MiB (21%)\nAlignment                                : Aligned on interleaves\nInterleave, duration                     : 32 ms (0.80 video frame)","torrent":{"xt":"urn:btih:03566be0fda28a5871f2192d2024994671a7f2d2","amp;dn":"Beowulf+%282007%29+DVDRip+XviD+AC3+peaSoup","amp;tr":["udp%3A%2F%2Ftracker.openbittorrent.com%3A80","udp%3A%2F%2Fopen.demonii.com%3A1337","udp%3A%2F%2Ftracker.coppersurfer.tk%3A6969","udp%3A%2F%2Fexodus.desync.com%3A6969"],"infoHash":"03566be0fda28a5871f2192d2024994671a7f2d2","infoHashBuffer":{"type":"Buffer","data":[3,86,107,224,253,162,138,88,113,242,25,45,32,36,153,70,113,167,242,210]},"announce":[],"urlList":[]}}